0
SECTION
2
HEADER
9
$INSUNITS
70
4
9
$ACADVER
1
AC1014
9
$HANDSEED
5
FFFF
0
ENDSEC
0
SECTION
2
TABLES
0
TABLE
2
VPORT
5
8
100
AcDbSymbolTable
0
ENDTAB
0
TABLE
2
LTYPE
5
5
100
AcDbSymbolTable
0
LTYPE
5
14
100
AcDbSymbolTableRecord
100
AcDbLinetypeTableRecord
2
BYBLOCK
70
0
0
LTYPE
5
15
100
AcDbSymbolTableRecord
100
AcDbLinetypeTableRecord
2
BYLAYER
70
0
0
LTYPE
5
16
100
AcDbSymbolTableRecord
100
AcDbLinetypeTableRecord
2
DASHED
70
0
3
Dashed __ __ __ __ __ __ __ __ __ __ __ __ __ _
72
65
73
2
40
0.75
49
0.5
74
0
49
-0.25
74
0
0
ENDTAB
0
TABLE
2
LAYER
5
2
100
AcDbSymbolTable
70
2
0
LAYER
5
50
100
AcDbSymbolTableRecord
100
AcDbLayerTableRecord
2
0
70
0
62
7
6
CONTINUOUS
0
ENDTAB
0
TABLE
2
STYLE
5
3
100
AcDbSymbolTable
70
1
0
STYLE
5
11
100
AcDbSymbolTableRecord
100
AcDbTextStyleTableRecord
2
STANDARD
70
0
0
ENDTAB
0
TABLE
2
VIEW
5
6
100
AcDbSymbolTable
70
0
0
ENDTAB
0
TABLE
2
UCS
5
7
100
AcDbSymbolTable
70
0
0
ENDTAB
0
TABLE
2
APPID
5
9
100
AcDbSymbolTable
70
2
0
APPID
5
12
100
AcDbSymbolTableRecord
100
AcDbRegAppTableRecord
2
ACAD
70
0
0
ENDTAB
0
TABLE
2
DIMSTYLE
5
A
100
AcDbSymbolTable
70
1
0
ENDTAB
0
TABLE
2
BLOCK_RECORD
5
1
100
AcDbSymbolTable
70
1
0
BLOCK_RECORD
5
1F
100
AcDbSymbolTableRecord
100
AcDbBlockTableRecord
2
*MODEL_SPACE
0
BLOCK_RECORD
5
1B
100
AcDbSymbolTableRecord
100
AcDbBlockTableRecord
2
*PAPER_SPACE
0
ENDTAB
0
ENDSEC
0
SECTION
2
BLOCKS
0
BLOCK
5
20
100
AcDbEntity
100
AcDbBlockBegin
2
*MODEL_SPACE
0
ENDBLK
5
21
100
AcDbEntity
100
AcDbBlockEnd
0
BLOCK
5
1C
100
AcDbEntity
100
AcDbBlockBegin
2
*PAPER_SPACE
0
ENDBLK
5
1D
100
AcDbEntity
100
AcDbBlockEnd
0
ENDSEC
0
SECTION
2
ENTITIES
0
POINT
5
100
100
AcDbEntity
8
0
100
AcDbPoint
10
0
20
0
30
0
0
POINT
5
101
100
AcDbEntity
8
0
100
AcDbPoint
10
0
20
0
30
0
0
POINT
5
102
100
AcDbEntity
8
0
100
AcDbPoint
10
-60.000000000000043
20
0.2499999999999869
30
0
0
POINT
5
103
100
AcDbEntity
8
0
100
AcDbPoint
10
-43.325731692612521
20
-12.613148997370427
30
0
0
POINT
5
104
100
AcDbEntity
8
0
100
AcDbPoint
10
-60.000000000000043
20
0.2499999999999869
30
0
0
POINT
5
105
100
AcDbEntity
8
0
100
AcDbPoint
10
103.07289391733249
20
-30.46804421210976
30
0
0
POINT
5
106
100
AcDbEntity
8
0
100
AcDbPoint
10
103.07289391733249
20
-30.46804421210976
30
0
0
LINE
5
107
100
AcDbEntity
8
0
100
AcDbLine
10
146.49999999999994
20
91.874999999999943
30
0
11
-146.50000000000003
21
91.874999999999943
31
0
0
LINE
5
108
100
AcDbEntity
8
0
100
AcDbLine
10
-146.50000000000003
20
91.874999999999943
30
0
11
-146.50000000000006
21
-91.875000000000057
31
0
0
LINE
5
109
100
AcDbEntity
8
0
100
AcDbLine
10
-146.50000000000006
20
-91.875000000000057
30
0
11
146.49999999999994
21
-91.875000000000057
31
0
0
LINE
5
110
100
AcDbEntity
8
0
100
AcDbLine
10
146.49999999999994
20
-91.875000000000057
30
0
11
146.49999999999994
21
91.874999999999943
31
0
0
LINE
5
111
100
AcDbEntity
8
0
100
AcDbLine
10
146.49999999999994
20
91.874999999999943
30
0
11
-146.50000000000006
21
-91.875000000000057
31
0
6
DASHED
0
LINE
5
112
100
AcDbEntity
8
0
100
AcDbLine
10
-146.50000000000003
20
91.874999999999943
30
0
11
146.49999999999994
21
-91.875000000000057
31
0
6
DASHED
0
LINE
5
113
100
AcDbEntity
8
0
100
AcDbLine
10
146.49999999999994
20
91.874999999999943
30
0
11
26.49999999999995
21
91.875000000000014
31
0
0
LINE
5
114
100
AcDbEntity
8
0
100
AcDbLine
10
26.49999999999995
20
91.875000000000014
30
0
11
26.49999999999995
21
-91.374999999999972
31
0
0
LWPOLYLINE
5
115
100
AcDbEntity
8
0
100
AcDbPolyline
90
4
70
1
43
0.0
10
5.4999999999999805
20
65.749999999999972
10
-125.50000000000006
20
65.750000000000057
10
-125.50000000000006
20
-65.249999999999957
10
5.4999999999999902
20
-65.250000000000028
0
LINE
5
116
100
AcDbEntity
8
0
100
AcDbLine
10
5.4999999999999805
20
65.749999999999972
30
0
11
-125.50000000000006
21
-65.249999999999957
31
0
6
DASHED
0
LINE
5
117
100
AcDbEntity
8
0
100
AcDbLine
10
-125.50000000000006
20
65.750000000000057
30
0
11
5.4999999999999902
21
-65.250000000000028
31
0
6
DASHED
0
LWPOLYLINE
5
118
100
AcDbEntity
8
0
100
AcDbPolyline
90
4
70
1
43
0.0
10
114.57289391733249
20
-5.4680442121097794
10
91.572893917332493
20
-5.4680442121098141
10
91.572893917332493
20
-55.468044212109817
10
114.57289391733249
20
-55.468044212109781
0
LINE
5
119
100
AcDbEntity
8
0
100
AcDbLine
10
114.57289391733249
20
-5.4680442121097794
30
0
11
91.572893917332493
21
-55.468044212109817
31
0
6
DASHED
0
LINE
5
120
100
AcDbEntity
8
0
100
AcDbLine
10
91.572893917332493
20
-5.4680442121098141
30
0
11
114.57289391733249
21
-55.468044212109781
31
0
6
DASHED
0
LINE
5
121
100
AcDbEntity
8
0
100
AcDbLine
10
112.57289391733249
20
-16.968044212109795
30
0
11
93.572893917332493
21
-16.968044212109795
31
0
0
LINE
5
122
100
AcDbEntity
8
0
100
AcDbLine
10
93.572893917332493
20
-16.968044212109795
30
0
11
93.572893917332493
21
-43.968044212109731
31
0
0
LINE
5
123
100
AcDbEntity
8
0
100
AcDbLine
10
93.572893917332493
20
-43.968044212109731
30
0
11
112.57289391733249
21
-43.968044212109731
31
0
0
LINE
5
124
100
AcDbEntity
8
0
100
AcDbLine
10
112.57289391733249
20
-43.968044212109731
30
0
11
112.57289391733249
21
-16.968044212109795
31
0
0
LINE
5
125
100
AcDbEntity
8
0
100
AcDbLine
10
112.57289391733249
20
-16.968044212109795
30
0
11
93.572893917332493
21
-43.968044212109731
31
0
6
DASHED
0
LINE
5
126
100
AcDbEntity
8
0
100
AcDbLine
10
93.572893917332493
20
-16.968044212109795
30
0
11
112.57289391733249
21
-43.968044212109731
31
0
6
DASHED
0
LINE
5
127
100
AcDbEntity
8
0
100
AcDbLine
10
93.572893917332493
20
-16.968044212109795
30
0
11
93.572893917332493
21
-20.968044212109795
31
0
0
LINE
5
128
100
AcDbEntity
8
0
100
AcDbLine
10
93.572893917332493
20
-43.968044212109731
30
0
11
93.572893917332493
21
-39.968044212109731
31
0
0
LWPOLYLINE
5
129
100
AcDbEntity
8
0
100
AcDbPolyline
90
3
70
1
43
0.0
10
112.57289391733249
20
-16.968044212109795
10
112.57289391733249
20
-20.968044212109795
42
0.41421356237309437
10
108.57289391733248
20
-16.968044212109795
0
LWPOLYLINE
5
130
100
AcDbEntity
8
0
100
AcDbPolyline
90
3
70
1
43
0.0
10
112.57289391733249
20
-43.968044212109731
10
112.57289391733246
20
-39.968044212109731
42
-0.41421356237309309
10
108.57289391733248
20
-43.968044212109731
0
LINE
5
131
100
AcDbEntity
8
0
100
AcDbLine
10
108.57289391733248
20
-16.968044212109795
30
0
11
97.572893917332493
21
-16.968044212109795
31
0
0
LINE
5
132
100
AcDbEntity
8
0
100
AcDbLine
10
93.572893917332493
20
-20.968044212109795
30
0
11
97.572893917332493
21
-16.968044212109795
31
0
0
LINE
5
133
100
AcDbEntity
8
0
100
AcDbLine
10
108.57289391733248
20
-43.968044212109731
30
0
11
97.572893917332493
21
-43.968044212109731
31
0
0
LINE
5
134
100
AcDbEntity
8
0
100
AcDbLine
10
97.572893917332493
20
-43.968044212109731
30
0
11
93.572893917332493
21
-39.968044212109731
31
0
0
LINE
5
135
100
AcDbEntity
8
0
100
AcDbLine
10
103.07289391733249
20
-30.46804421210976
30
0
11
103.07289391733249
21
-55.468044212109795
31
0
0
LINE
5
136
100
AcDbEntity
8
0
100
AcDbLine
10
103.07289391733249
20
-30.46804421210976
30
0
11
103.07289391733249
21
-5.4680442121097972
31
0
0
LWPOLYLINE
5
137
100
AcDbEntity
8
0
100
AcDbPolyline
90
4
70
1
43
0.0
10
101.32289391733238
20
-7.8264133068604647
10
101.32289391733232
20
-12.048518385172509
42
0.99999999999999989
10
104.82289391733272
20
-12.048518385172509
10
104.82289391733268
20
-7.8264133068604647
42
0.99999999999999989
0
LINE
5
138
100
AcDbEntity
8
0
100
AcDbLine
10
103.07289391733249
20
-7.8264133068604647
30
0
11
103.07289391733249
21
-12.048518385172509
31
0
6
DASHED
0
LWPOLYLINE
5
139
100
AcDbEntity
8
0
100
AcDbPolyline
90
4
70
1
43
0.0
10
101.32289391733249
20
-48.82858173972393
10
101.32289391733249
20
-53.18626589162082
42
0.99999999999999989
10
104.82289391733249
20
-53.18626589162082
10
104.82289391733249
20
-48.82858173972393
42
0.99999999999999989
0
LINE
5
140
100
AcDbEntity
8
0
100
AcDbLine
10
103.07289391733249
20
-48.82858173972393
30
0
11
103.07289391733249
21
-53.18626589162082
31
0
6
DASHED
0
LINE
5
141
100
AcDbEntity
8
0
100
AcDbLine
10
-146.50000000000003
20
91.874999999999943
30
0
11
26.49999999999995
21
-91.374999999999972
31
0
0
LINE
5
142
100
AcDbEntity
8
0
100
AcDbLine
10
26.49999999999995
20
91.875000000000014
30
0
11
-146.50000000000006
21
-91.875000000000057
31
0
0
ENDSEC
0
SECTION
2
OBJECTS
0
DICTIONARY
5
C
100
AcDbDictionary
3
ACAD_GROUP
350
D
3
ACAD_MLINESTYLE
350
17
0
DICTIONARY
5
D
100
AcDbDictionary
0
DICTIONARY
5
1A
330
C
100
AcDbDictionary
0
DICTIONARY
5
17
100
AcDbDictionary
0
ENDSEC
0
EOF
