0
SECTION
2
HEADER
9
$INSUNITS
70
4
9
$ACADVER
1
AC1014
9
$HANDSEED
5
FFFF
0
ENDSEC
0
SECTION
2
TABLES
0
TABLE
2
VPORT
5
8
100
AcDbSymbolTable
0
ENDTAB
0
TABLE
2
LTYPE
5
5
100
AcDbSymbolTable
0
LTYPE
5
14
100
AcDbSymbolTableRecord
100
AcDbLinetypeTableRecord
2
BYBLOCK
70
0
0
LTYPE
5
15
100
AcDbSymbolTableRecord
100
AcDbLinetypeTableRecord
2
BYLAYER
70
0
0
LTYPE
5
16
100
AcDbSymbolTableRecord
100
AcDbLinetypeTableRecord
2
DASHED
70
0
3
Dashed __ __ __ __ __ __ __ __ __ __ __ __ __ _
72
65
73
2
40
0.75
49
0.5
74
0
49
-0.25
74
0
0
ENDTAB
0
TABLE
2
LAYER
5
2
100
AcDbSymbolTable
70
2
0
LAYER
5
50
100
AcDbSymbolTableRecord
100
AcDbLayerTableRecord
2
0
70
0
62
7
6
CONTINUOUS
0
ENDTAB
0
TABLE
2
STYLE
5
3
100
AcDbSymbolTable
70
1
0
STYLE
5
11
100
AcDbSymbolTableRecord
100
AcDbTextStyleTableRecord
2
STANDARD
70
0
0
ENDTAB
0
TABLE
2
VIEW
5
6
100
AcDbSymbolTable
70
0
0
ENDTAB
0
TABLE
2
UCS
5
7
100
AcDbSymbolTable
70
0
0
ENDTAB
0
TABLE
2
APPID
5
9
100
AcDbSymbolTable
70
2
0
APPID
5
12
100
AcDbSymbolTableRecord
100
AcDbRegAppTableRecord
2
ACAD
70
0
0
ENDTAB
0
TABLE
2
DIMSTYLE
5
A
100
AcDbSymbolTable
70
1
0
ENDTAB
0
TABLE
2
BLOCK_RECORD
5
1
100
AcDbSymbolTable
70
1
0
BLOCK_RECORD
5
1F
100
AcDbSymbolTableRecord
100
AcDbBlockTableRecord
2
*MODEL_SPACE
0
BLOCK_RECORD
5
1B
100
AcDbSymbolTableRecord
100
AcDbBlockTableRecord
2
*PAPER_SPACE
0
ENDTAB
0
ENDSEC
0
SECTION
2
BLOCKS
0
BLOCK
5
20
100
AcDbEntity
100
AcDbBlockBegin
2
*MODEL_SPACE
0
ENDBLK
5
21
100
AcDbEntity
100
AcDbBlockEnd
0
BLOCK
5
1C
100
AcDbEntity
100
AcDbBlockBegin
2
*PAPER_SPACE
0
ENDBLK
5
1D
100
AcDbEntity
100
AcDbBlockEnd
0
ENDSEC
0
SECTION
2
ENTITIES
0
POINT
5
100
100
AcDbEntity
8
0
100
AcDbPoint
10
0
20
0
30
0
0
POINT
5
101
100
AcDbEntity
8
0
100
AcDbPoint
10
0
20
0
30
0
0
POINT
5
102
100
AcDbEntity
8
0
100
AcDbPoint
10
0
20
0
30
0
0
LINE
5
103
100
AcDbEntity
8
0
100
AcDbLine
10
-119.49999620949558
20
105.00000113077394
30
0
11
-99.499996209495535
21
105.00000087843935
31
0
0
LINE
5
104
100
AcDbEntity
8
0
100
AcDbLine
10
-99.499996209495535
20
105.00000087843935
30
0
11
-99.499996487063555
21
83.000000878439337
31
0
0
LINE
5
105
100
AcDbEntity
8
0
100
AcDbLine
10
-99.499996487063555
20
83.000000878439337
30
0
11
-119.49999648706388
21
83.000001130773882
31
0
0
LINE
5
106
100
AcDbEntity
8
0
100
AcDbLine
10
-119.49999889685895
20
-107.99999929598579
30
0
11
-99.500001370057873
21
-107.99999954832104
31
0
0
LINE
5
107
100
AcDbEntity
8
0
100
AcDbLine
10
-99.500001370057873
20
-107.99999954832104
30
0
11
-99.500001092489683
21
-85.999999548321057
31
0
0
LINE
5
108
100
AcDbEntity
8
0
100
AcDbLine
10
-99.500001092489683
20
-85.999999548321057
30
0
11
-119.50000000000001
21
-85.999999548321071
31
0
0
LINE
5
109
100
AcDbEntity
8
0
100
AcDbLine
10
119.49999533651194
20
105.00000187592869
30
0
11
99.499995336511944
21
105.00000145731151
31
0
0
LINE
5
110
100
AcDbEntity
8
0
100
AcDbLine
10
99.499995336511944
20
105.00000145731151
30
0
11
99.499995796990845
21
83.000001457311527
31
0
0
LINE
5
111
100
AcDbEntity
8
0
100
AcDbLine
10
99.499995796990845
20
83.000001457311527
30
0
11
119.4999957969908
21
83.000001457311399
31
0
0
LINE
5
112
100
AcDbEntity
8
0
100
AcDbLine
10
119.49999979478484
20
-107.9999981240714
30
0
11
99.499999794785055
21
-107.99999854268859
31
0
0
LINE
5
113
100
AcDbEntity
8
0
100
AcDbLine
10
99.499999794785055
20
-107.99999854268859
30
0
11
99.499999334306153
21
-85.999998542688587
31
0
0
LINE
5
114
100
AcDbEntity
8
0
100
AcDbLine
10
99.499999334306153
20
-85.999998542688587
30
0
11
119.49999933430591
21
-85.999998542688587
31
0
0
LWPOLYLINE
5
115
100
AcDbEntity
8
0
100
AcDbPolyline
90
8
70
1
43
0.0
10
119.49999445741597
20
146.99999601530448
10
-119.4999956795933
20
146.99999601530445
10
119.49999999254948
20
146.99999601530445
10
119.49999999254948
20
150.49999601530445
10
-119.4999956795933
20
150.49999601530445
10
-119.4999956795933
20
146.99999601530445
10
-119.4999993889116
20
-147.00000208166304
10
119.50000061108838
20
-147.00000208166298
0
LINE
5
116
100
AcDbEntity
8
0
100
AcDbLine
10
119.49999445741597
20
146.99999601530448
30
0
11
-119.4999993889116
21
-147.00000208166304
31
0
6
DASHED
0
LINE
5
117
100
AcDbEntity
8
0
100
AcDbLine
10
-119.4999956795933
20
146.99999601530445
30
0
11
119.50000061108838
21
-147.00000208166298
31
0
6
DASHED
0
LINE
5
118
100
AcDbEntity
8
0
100
AcDbLine
10
-119.4999993889116
20
-147.00000208166304
30
0
11
-119.49999938891168
21
-127.00000208166307
31
0
0
LINE
5
119
100
AcDbEntity
8
0
100
AcDbLine
10
-119.49999938891168
20
-127.00000208166307
30
0
11
119.50000019247122
21
-127.0000020817146
31
0
0
LINE
5
120
100
AcDbEntity
8
0
100
AcDbLine
10
-119.49999938891168
20
-127.00000208166307
30
0
11
-119.49999853097404
21
-79.000002081663041
31
0
0
LINE
5
121
100
AcDbEntity
8
0
100
AcDbLine
10
-119.49999853097404
20
-79.000002081663041
30
0
11
119.49999918779002
21
-79.000000940931429
31
0
0
LWPOLYLINE
5
122
100
AcDbEntity
8
0
100
AcDbPolyline
90
4
70
1
43
0.0
10
-77.448771687462113
20
-79.000001866634037
10
-77.448771689623726
20
-127.00000207703873
42
0.99999999999999989
10
-72.948770684899131
20
-127.00000207704574
10
-72.948770686197946
20
-79.000001866641014
42
0.99999999999999989
0
LINE
5
123
100
AcDbEntity
8
0
100
AcDbLine
10
-75.198771188495485
20
-79.000001870216138
30
0
11
-75.198771188522642
21
-127.00000208150948
31
0
6
DASHED
0
LWPOLYLINE
5
124
100
AcDbEntity
8
0
100
AcDbPolyline
90
4
70
1
43
0.0
10
-67.259631520164788
20
-79.000001797889908
10
-67.259632022602503
20
-127.00000205791342
42
1.0000000074505806
10
-62.759631520308041
20
-127.00000210501493
10
-62.759631520227344
20
-79.000001844991402
42
0.99999999999999989
0
LINE
5
125
100
AcDbEntity
8
0
100
AcDbLine
10
-65.009631520253407
20
-79.000001821584021
30
0
11
-65.009631520319161
21
-127.00000208162317
31
0
6
DASHED
0
LWPOLYLINE
5
126
100
AcDbEntity
8
0
100
AcDbPolyline
90
4
70
1
43
0.0
10
-57.250097045238121
20
-79.000001726706842
10
-57.250098050001341
20
-127.00000203453405
42
0.99999999999999989
10
-52.750098049740501
20
-127.00000212872682
10
-52.750097044981828
20
-79.000001820899627
42
0.9999999925494194
0
LINE
5
127
100
AcDbEntity
8
0
100
AcDbLine
10
-55.000097045095231
20
-79.00000177380916
30
0
11
-55.000098049906818
21
-127.00000208161363
31
0
6
DASHED
0
LWPOLYLINE
5
128
100
AcDbEntity
8
0
100
AcDbPolyline
90
4
70
1
43
0.0
10
77.749664821773393
20
-79.00000112873424
10
77.749664821789011
20
-127.00000208079688
42
0.99999999999999989
10
82.249664821780542
20
-127.00000208079997
10
82.249664821764952
20
-79.000001128737324
42
0.99999999999999989
0
LINE
5
129
100
AcDbEntity
8
0
100
AcDbLine
10
79.99966482212551
20
-79.000001129463982
30
0
11
79.99966482211228
21
-127.000002081723
31
0
6
DASHED
0
LWPOLYLINE
5
130
100
AcDbEntity
8
0
100
AcDbPolyline
90
4
70
1
43
0.0
10
67.750001043105669
20
-79.000001177190896
10
67.750001043096717
20
-127.00000208168873
42
0.99999999999999989
10
72.250001043081667
20
-127.00000208169041
10
72.250001043090606
20
-79.000001177192573
42
0.99999999999999989
0
LINE
5
131
100
AcDbEntity
8
0
100
AcDbLine
10
70.000001043081284
20
-79.000001177191734
30
0
11
70.000001043081298
21
-127.00000208171488
31
0
6
DASHED
0
LWPOLYLINE
5
132
100
AcDbEntity
8
0
100
AcDbPolyline
90
4
70
1
43
0.0
10
57.750000894069672
20
-79.000001177191251
10
57.750000894059326
20
-127.00000208170127
42
0.99999999999999989
10
62.250000894059319
20
-127.00000208170225
10
62.250000894069672
20
-79.000001177192217
42
0.99999999999999989
0
LINE
5
133
100
AcDbEntity
8
0
100
AcDbLine
10
60.000000894069672
20
-79.000001177191734
30
0
11
60.000000894059326
21
-127.00000208170178
31
0
6
DASHED
0
LINE
5
134
100
AcDbEntity
8
0
100
AcDbLine
10
-45.135122684625543
20
-79.000001870215982
30
0
11
-45.1351226846527
21
-127.00000208150924
31
0
6
DASHED
0
LWPOLYLINE
5
135
100
AcDbEntity
8
0
100
AcDbPolyline
90
4
70
1
43
0.0
10
-27.186448541353464
20
-79.000001726710735
10
-27.186449546131431
20
-127.00000203451511
42
0.99999999999999989
10
-22.686449545906488
20
-127.00000212871144
10
-22.686448541111929
20
-79.000001820899456
42
0.9999999925494194
0
LINE
5
136
100
AcDbEntity
8
0
100
AcDbLine
10
-24.936448541225328
20
-79.000001773809004
30
0
11
-24.936449546036915
21
-127.00000208161339
31
0
6
DASHED
0
LWPOLYLINE
5
137
100
AcDbEntity
8
0
100
AcDbPolyline
90
4
70
1
43
0.0
10
-47.385123183592164
20
-79.00000186663388
10
-47.385123185753777
20
-127.00000207703849
42
0.99999999999999989
10
-42.885122181029196
20
-127.00000207704548
10
-42.885122182327997
20
-79.000001866640858
42
0.99999999999999989
0
LWPOLYLINE
5
138
100
AcDbEntity
8
0
100
AcDbPolyline
90
4
70
1
43
0.0
10
-32.695983016357431
20
-79.000001844991246
42
0.99999999999999989
10
-37.195983016294861
20
-79.000001797889738
10
-37.195983518732575
20
-127.00000205791318
42
0.99999999999999989
10
-32.69598301643812
20
-127.00000210501469
0
LINE
5
139
100
AcDbEntity
8
0
100
AcDbLine
10
-34.945983016383472
20
-79.000001821583865
30
0
11
-34.945983016449226
21
-127.00000208162292
31
0
6
DASHED
0
LWPOLYLINE
5
140
100
AcDbEntity
8
0
100
AcDbPolyline
90
4
70
1
43
0.0
10
38.447457564641084
20
-126.74630040657574
42
0.99999999999999989
10
42.947457564618112
20
-126.74630040657659
10
42.947457564634952
20
-78.746299502054057
42
0.99999999999999989
10
38.447457564633176
20
-78.746299502052807
0
LINE
5
141
100
AcDbEntity
8
0
100
AcDbLine
10
40.69745756462563
20
-78.746299502053233
30
0
11
40.697457564625651
21
-126.74630040657617
31
0
6
DASHED
0
LWPOLYLINE
5
142
100
AcDbEntity
8
0
100
AcDbPolyline
90
4
70
1
43
0.0
10
52.947121343309234
20
-78.746299453598823
42
0.99999999999999989
10
48.447121343317718
20
-78.746299453595739
10
48.447121343333336
20
-126.74630040565816
42
0.99999999999999989
10
52.947121343324838
20
-126.74630040566126
0
LINE
5
143
100
AcDbEntity
8
0
100
AcDbLine
10
50.697121343669821
20
-78.746299454325481
30
0
11
50.69712134365659
21
-126.74630040658428
31
0
6
DASHED
0
LWPOLYLINE
5
144
100
AcDbEntity
8
0
100
AcDbPolyline
90
4
70
1
43
0.0
10
32.947457415603708
20
-126.74630040656353
10
32.947457415614053
20
-78.746299502053716
42
0.99999999999999989
10
28.447457415614078
20
-78.746299502052736
10
28.447457415603733
20
-126.74630040656255
42
0.99999999999999989
0
LINE
5
145
100
AcDbEntity
8
0
100
AcDbLine
10
30.697457415614068
20
-78.746299502053233
30
0
11
30.697457415603719
21
-126.74630040656305
31
0
6
DASHED
0
ENDSEC
0
SECTION
2
OBJECTS
0
DICTIONARY
5
C
100
AcDbDictionary
3
ACAD_GROUP
350
D
3
ACAD_MLINESTYLE
350
17
0
DICTIONARY
5
D
100
AcDbDictionary
0
DICTIONARY
5
1A
330
C
100
AcDbDictionary
0
DICTIONARY
5
17
100
AcDbDictionary
0
ENDSEC
0
EOF
